<svg width="23" height="31" viewBox="0 0 23 31" fill="none" xmlns="http://www.w3.org/2000/svg">
<path d="M17.28 2.24L18.5 2.36C18.66 2.73333 18.8 3.18667 18.92 3.72C19.04 4.25333 19.1267 4.79333 19.18 5.34C19.2467 5.88667 19.28 6.37333 19.28 6.8C19.28 7.88 19.1 8.88 18.74 9.8C18.3667 10.72 17.8533 11.5267 17.2 12.22C16.5467 12.9 15.78 13.4333 14.9 13.82C14.0067 14.2067 13.04 14.4 12 14.4C10.96 14.4 10 14.2067 9.12 13.82C8.22667 13.4333 7.45333 12.9 6.8 12.22C6.14667 11.5267 5.64 10.72 5.28 9.8C4.90667 8.88 4.72 7.88 4.72 6.8C4.72 6.36 4.75333 5.86667 4.82 5.32C4.88667 4.77333 4.98 4.24 5.1 3.72C5.20667 3.2 5.33333 2.76 5.48 2.4L6.6 2.5V2.62C6.14667 3.11333 5.8 3.73333 5.56 4.48C5.32 5.22667 5.2 6 5.2 6.8C5.2 8 5.48667 9.06 6.06 9.98C6.62 10.8867 7.41333 11.6 8.44 12.12C9.45333 12.6267 10.64 12.88 12 12.88C13.3733 12.88 14.5667 12.6267 15.58 12.12C16.5933 11.6 17.3867 10.8867 17.96 9.98C18.52 9.07333 18.8 8.01333 18.8 6.8C18.8 5.89333 18.6533 5.05333 18.36 4.28C18.0667 3.49333 17.7067 2.85333 17.28 2.36V2.24Z" fill="black"/>
<path d="M12.78 14L12.78 26.24C12.96 26.24 13.332 26.204 13.896 26.132L17.424 25.682V26.6H6.912V25.682L10.44 26.132C11.004 26.204 11.376 26.24 11.556 26.24L11.556 14H12.78Z" fill="black"/>
</svg>
